<svg width="42" height="43" viewBox="0 0 42 43" fill="none" xmlns="http://www.w3.org/2000/svg">
<path d="M41.416 23.4858C41.8111 24.0992 41.9999 24.7862 41.9999 25.4663C41.9999 26.6966 41.381 27.9025 40.2516 28.593C39.1573 29.2625 38.5068 30.4508 38.5068 31.7128C38.5068 31.8635 38.5174 32.0142 38.5349 32.1685C38.5559 32.3227 38.5629 32.477 38.5629 32.6277C38.5629 34.4785 37.1642 36.0734 35.2761 36.2627C34.5628 36.3328 33.9019 36.6133 33.3635 37.0444C32.825 37.4756 32.4089 38.0575 32.1816 38.741C31.6677 40.2729 30.2446 41.2333 28.7236 41.2333C28.3075 41.2333 27.8844 41.1632 27.4719 41.0125C27.2691 40.9389 27.0628 40.8828 26.853 40.8477C26.6432 40.8092 26.4334 40.7917 26.2237 40.7917C25.2586 40.7917 24.311 41.1772 23.6118 41.8958C22.8985 42.6319 21.9475 43 20.9999 43C20.0523 43 19.1012 42.6319 18.388 41.8958C17.6887 41.1772 16.7411 40.7917 15.7761 40.7917C15.3566 40.7917 14.9335 40.8653 14.5278 41.0125C14.1153 41.1632 13.6922 41.2333 13.2762 41.2333C11.7552 41.2333 10.3321 40.2728 9.81812 38.741C9.59084 38.0575 9.17478 37.4756 8.63631 37.0444C8.09784 36.6133 7.43701 36.3328 6.72375 36.2627C4.83561 36.0734 3.43703 34.4785 3.43703 32.6277C3.43703 32.477 3.44402 32.3227 3.46498 32.1685C3.48247 32.0142 3.49298 31.8635 3.49298 31.7128C3.49298 30.4509 2.8426 29.2626 1.74822 28.593C0.61885 27.9025 0 26.6966 0 25.4663C0 24.7862 0.188826 24.0992 0.583857 23.4858C0.975483 22.8794 1.16777 22.1923 1.16777 21.4983C1.16777 20.8112 0.975483 20.1172 0.583857 19.5143C0.188767 18.9008 0 18.2138 0 17.5338C0 16.3034 0.61885 15.1011 1.74822 14.4105C2.8426 13.741 3.49298 12.5492 3.49298 11.2873C3.49298 11.1366 3.48247 10.9858 3.46498 10.8316C3.44402 10.6773 3.43703 10.5231 3.43703 10.3724C3.43703 8.52158 4.83561 6.92663 6.72375 6.73733C7.43701 6.66369 8.09784 6.3868 8.63631 5.95563C9.17478 5.52793 9.59089 4.94613 9.81812 4.26256C10.3321 2.73071 11.7587 1.76677 13.2797 1.76677C13.6957 1.76677 14.1153 1.83688 14.5279 1.98757C14.9335 2.13825 15.3566 2.20842 15.7762 2.20842C16.7412 2.20842 17.6888 1.82281 18.3881 1.10421C19.1013 0.36807 20.0524 0 20.9999 0C21.9475 0 22.8985 0.36807 23.6119 1.10421C24.6153 2.13478 26.1258 2.48184 27.4719 1.98757C27.8846 1.83688 28.3041 1.76677 28.7202 1.76677C30.2412 1.76677 31.6678 2.73071 32.1818 4.26256C32.409 4.94613 32.825 5.52793 33.3636 5.95563C33.902 6.38674 34.5629 6.66369 35.2762 6.73733C37.1643 6.92663 38.563 8.52158 38.563 10.3724C38.563 10.5231 38.556 10.6773 38.535 10.8316C38.5175 10.9858 38.507 11.1366 38.507 11.2873C38.507 12.5492 39.1573 13.741 40.2517 14.4105C41.3811 15.101 42 16.3034 42 17.5338C42 18.2138 41.8112 18.9009 41.4161 19.5143C41.0245 20.1172 40.8322 20.8113 40.8322 21.4983C40.8322 21.8803 40.8916 22.2624 41.0105 22.6305C41.1048 22.9284 41.2412 23.2159 41.416 23.4858Z" fill="#2F233B"/>
<circle cx="20.5" cy="21.5" r="11" stroke="#EA645F"/>
<path d="M25 21.5C25 21.2741 24.8168 21.0909 24.5909 21.0909H21.9091C21.3568 21.0909 20.9091 20.6432 20.9091 20.0909V17.4091C20.9091 17.1832 20.7259 17 20.5 17C20.2741 17 20.0909 17.1832 20.0909 17.4091V20.0909C20.0909 20.6432 19.6432 21.0909 19.0909 21.0909H16.4091C16.1832 21.0909 16 21.2741 16 21.5C16 21.7259 16.1832 21.9091 16.4091 21.9091H19.0909C19.6432 21.9091 20.0909 22.3568 20.0909 22.9091V25.5909C20.0909 25.8168 20.2741 26 20.5 26C20.7259 26 20.9091 25.8168 20.9091 25.5909V22.9091C20.9091 22.3568 21.3568 21.9091 21.9091 21.9091H24.5909C24.8168 21.9091 25 21.7259 25 21.5Z" fill="#0BCEB2"/>
</svg>
