<svg width="14" height="16" viewBox="0 0 14 16" fill="none" xmlns="http://www.w3.org/2000/svg">
<path d="M10.4196 0.5H3.56135C2.72552 0.5 2.30796 0.5 1.97046 0.617722C1.65226 0.730718 1.36436 0.915642 1.1291 1.15813C0.893842 1.40063 0.71756 1.69416 0.613944 2.01594C0.5 2.36406 0.5 2.7945 0.5 3.65611V13.7701C0.5 14.3898 1.21035 14.7191 1.65964 14.3074C1.78569 14.1908 1.951 14.126 2.12262 14.126C2.29425 14.126 2.45956 14.1908 2.58561 14.3074L2.93394 14.6267C3.15476 14.8312 3.44448 14.9448 3.74525 14.9448C4.04602 14.9448 4.33573 14.8312 4.55656 14.6267C4.77739 14.4222 5.0671 14.3086 5.36787 14.3086C5.66865 14.3086 5.95836 14.4222 6.17919 14.6267C6.40001 14.8312 6.68972 14.9448 6.9905 14.9448C7.29127 14.9448 7.58098 14.8312 7.80181 14.6267C8.02264 14.4222 8.31235 14.3086 8.61312 14.3086C8.9139 14.3086 9.20361 14.4222 9.42443 14.6267C9.64526 14.8312 9.93497 14.9448 10.2357 14.9448C10.5365 14.9448 10.8262 14.8312 11.0471 14.6267L11.3954 14.3074C11.5214 14.1908 11.6867 14.126 11.8584 14.126C12.03 14.126 12.1953 14.1908 12.3214 14.3074C12.7706 14.7191 13.481 14.3898 13.481 13.7701V3.65611C13.481 2.7945 13.481 2.36333 13.367 2.01667C13.2636 1.69472 13.0874 1.40102 12.8521 1.15839C12.6168 0.91576 12.3288 0.730742 12.0105 0.617722C11.673 0.5 11.2555 0.5 10.4196 0.5Z" stroke="#EA645F"/>
<path d="M5.90885 7.02778H10.5964M3.38477 7.02778H3.74535M3.38477 4.5H3.74535M3.38477 9.55556H3.74535M5.90885 4.5H10.5964M5.90885 9.55556H10.5964" stroke="#0BCEB2" stroke-linecap="round"/>
</svg>
