<svg width="17" height="13" viewBox="0 0 17 13" fill="none" xmlns="http://www.w3.org/2000/svg">
<path d="M0.5 3.24302V9.75731C0.5 10.7174 0.5 11.1972 0.687792 11.5639C0.852979 11.8865 1.11637 12.149 1.44057 12.3133C1.80877 12.5 2.29102 12.5 3.25409 12.5H13.2526C14.2157 12.5 14.6972 12.5 15.0654 12.3133C15.3896 12.149 15.6539 11.8865 15.8191 11.5639C16.0067 11.1976 16.0067 10.7184 16.0067 9.76021V3.24021C16.0067 2.28199 16.0067 1.80217 15.8191 1.43583C15.6539 1.11326 15.3896 0.8512 15.0654 0.686846C14.6969 0.5 14.2151 0.5 13.2501 0.5H3.25692C2.29196 0.5 1.80913 0.5 1.44057 0.686846C1.11637 0.8512 0.852979 1.11326 0.687792 1.43583C0.5 1.80253 0.5 2.28293 0.5 3.24302Z" stroke="white" stroke-linecap="round" stroke-linejoin="round"/>
<path d="M8.8391 9.07143C8.12542 9.07143 7.54688 8.49579 7.54688 7.78571C7.54688 7.07563 8.12542 6.5 8.8391 6.5M13.5773 7.78571C13.5773 8.49579 12.9987 9.07143 12.285 9.07143C11.5714 9.07143 10.9928 8.49579 10.9928 7.78571C10.9928 7.07563 11.5714 6.5 12.285 6.5C12.9987 6.5 13.5773 7.07563 13.5773 7.78571Z" stroke="white" stroke-linecap="round" stroke-linejoin="round"/>
</svg>
