<svg xmlns="http://www.w3.org/2000/svg" width="1030" height="827" viewBox="0 0 1030 827">
    <g fill="none" fill-rule="evenodd">
        <g fill="#000" fill-rule="nonzero">
            <g>
                <path d="M421.333 482.387v3.604c-1.783 108.992-90.642 196.417-199.649 196.426-109.007.01-197.88-87.398-199.684-196.39v-3.604 5.118h92.523c0 59.208 47.998 107.207 107.207 107.207 59.209 0 107.207-47.999 107.207-107.207h92.468v-5.154h-.072z" opacity=".05" transform="translate(-139 -86) translate(139 86) rotate(18 221.703 582.402)"/>
                <path d="M913.694 698.838c28.43-.005 55.696 11.287 75.8 31.39 20.102 20.102 31.394 47.37 31.389 75.799v1.478H806.468v-1.478c0-28.431 11.296-55.698 31.402-75.8 20.106-20.103 47.374-31.394 75.806-31.39h.018z" opacity=".1" transform="translate(-139 -86) translate(139 86) rotate(-11 913.676 753.171)"/>
                <path d="M869.135 0c9.279 0 17.644 5.59 21.193 14.164 3.549 8.573 1.583 18.44-4.98 24.998-6.564 6.559-16.433 8.517-25.003 4.96-8.57-3.555-14.154-11.924-14.147-21.203C846.208 10.259 856.474 0 869.135 0z" opacity=".07" transform="translate(-139 -86) translate(139 86)"/>
            </g>
        </g>
    </g>
</svg>
