<svg width="13" height="16" viewBox="0 0 13 16" fill="none" xmlns="http://www.w3.org/2000/svg">
<path d="M12.4825 15.5C12.4825 13.2909 9.80009 11.5 6.49123 11.5C3.18236 11.5 0.5 13.2909 0.5 15.5M6.49123 8.5C4.28532 8.5 2.49708 6.70914 2.49708 4.5C2.49708 2.29086 4.28532 0.5 6.49123 0.5C8.69714 0.5 10.4854 2.29086 10.4854 4.5C10.4854 6.70914 8.69714 8.5 6.49123 8.5Z" stroke="#EA645F" stroke-linecap="round" stroke-linejoin="round"/>
<path d="M5.49219 4.5C5.49219 5.05228 5.93925 5.5 6.49073 5.5C7.0422 5.5 7.48926 5.05228 7.48926 4.5C7.48926 3.94772 7.0422 3.5 6.49073 3.5C5.93925 3.5 5.49219 3.94772 5.49219 4.5Z" stroke="#0BCEB2" stroke-linecap="round" stroke-linejoin="round"/>
</svg>
