<svg xmlns="http://www.w3.org/2000/svg" width="129" height="40" fill="none" viewBox="0 0 129 40">
    <path fill="#fff" d="M64.198 27.796c-1.617 0-3.103-.376-4.456-1.13-1.353-.752-2.426-1.792-3.219-3.118-.792-1.342-1.188-2.856-1.188-4.542 0-1.67.396-3.168 1.188-4.494.793-1.342 1.865-2.39 3.219-3.143 1.353-.753 2.839-1.13 4.456-1.13 1.634 0 3.12.377 4.457 1.13 1.353.753 2.418 1.8 3.194 3.143.792 1.326 1.188 2.824 1.188 4.494 0 1.686-.396 3.2-1.188 4.542-.776 1.326-1.84 2.366-3.194 3.119-1.354.753-2.84 1.13-4.457 1.13zm0-3.07c1.04 0 1.956-.228 2.749-.687.792-.475 1.41-1.146 1.856-2.013.446-.868.669-1.875.669-3.02 0-1.146-.223-2.145-.669-2.996-.445-.868-1.064-1.53-1.856-1.99-.793-.457-1.709-.687-2.749-.687s-1.964.23-2.772.688c-.793.458-1.412 1.121-1.857 1.989-.446.851-.669 1.85-.669 2.995 0 1.146.223 2.153.669 3.02.445.868 1.064 1.54 1.856 2.014.81.459 1.734.688 2.773.688zM78.587 15.985c.445-.622 1.056-1.137 1.832-1.547.792-.425 1.692-.638 2.699-.638 1.171 0 2.228.286 3.169.86.957.572 1.708 1.39 2.253 2.455.56 1.047.841 2.267.841 3.658 0 1.392-.28 2.628-.841 3.708-.545 1.064-1.296 1.89-2.253 2.48-.941.59-1.998.884-3.17.884-1.006 0-1.898-.204-2.673-.614-.76-.409-1.379-.925-1.857-1.547v8.423H75.12V14.02h3.466v1.964zm7.254 4.788c0-.818-.173-1.522-.52-2.111-.33-.606-.776-1.064-1.337-1.375-.545-.311-1.139-.467-1.782-.467-.628 0-1.222.164-1.783.491-.545.311-.99.77-1.337 1.375-.33.606-.495 1.318-.495 2.137 0 .818.165 1.53.495 2.136.347.605.792 1.072 1.337 1.4.561.31 1.155.466 1.782.466.644 0 1.238-.164 1.783-.491.561-.328 1.007-.794 1.337-1.4.347-.606.52-1.326.52-2.16zM95.44 16.845v6.58c0 .459.108.794.322 1.007.231.197.611.295 1.14.295h1.609v2.897h-2.18c-2.92 0-4.381-1.408-4.381-4.223v-6.556h-1.634V14.02h1.634v-3.364h3.49v3.364h3.07v2.824h-3.07zM102.266 12.4c-.61 0-1.122-.188-1.535-.565-.396-.392-.594-.875-.594-1.448s.198-1.048.594-1.424c.413-.393.925-.59 1.535-.59.611 0 1.114.197 1.511.59.412.376.618.85.618 1.424 0 .573-.206 1.056-.618 1.448-.397.377-.9.565-1.511.565zm1.709 1.62v13.604h-3.467V14.021h3.467zM113.193 16.845h-2.402v10.78h-3.516v-10.78h-1.559V14.02h1.559v-.688c0-1.67.479-2.897 1.436-3.683.958-.786 2.402-1.154 4.333-1.105v2.898c-.842-.017-1.428.122-1.758.417-.33.295-.495.827-.495 1.596v.565h2.402v2.824zM121.034 27.845c-1.32 0-2.509-.286-3.565-.86-1.056-.588-1.89-1.415-2.501-2.48-.594-1.063-.891-2.291-.891-3.682 0-1.392.305-2.62.916-3.684.627-1.064 1.477-1.882 2.55-2.455 1.073-.59 2.27-.884 3.59-.884 1.321 0 2.517.294 3.59.884 1.073.573 1.915 1.391 2.525 2.455.628 1.064.941 2.292.941 3.684 0 1.391-.322 2.619-.965 3.683-.627 1.064-1.486 1.89-2.575 2.48-1.073.573-2.278.86-3.615.86zm0-2.995c.627 0 1.213-.148 1.758-.443.561-.31 1.007-.769 1.337-1.375.33-.605.495-1.342.495-2.21 0-1.293-.347-2.283-1.04-2.97-.676-.704-1.51-1.056-2.5-1.056-.991 0-1.824.352-2.501 1.055-.66.688-.99 1.678-.99 2.972 0 1.293.322 2.291.965 2.995.661.688 1.486 1.031 2.476 1.031z"/>
    <path fill="#fff" fill-rule="evenodd" d="M5.179 4.048c0-.967.79-1.752 1.766-1.752h2.49V0h-2.49C4.691 0 2.864 1.813 2.864 4.048v2.13h2.315v-2.13zM37.11 0v2.296h2.49c.976 0 1.767.785 1.767 1.752v2.13h2.315v-2.13C43.682 1.813 41.855 0 39.6 0h-2.49zm3.37 18.535L38.892 14.6c-.054-.127-.16-.346-.16-.346-.98-2.373-3.304-3.922-5.89-3.922H13.707c-2.586 0-4.911 1.55-5.89 3.922 0 0-.107.22-.16.346l-1.588 3.935c-.355.877.295 1.828 1.246 1.828H39.227c.951 0 1.601-.95 1.253-1.828zm-35.484-.62c0-.447-.376-.815-.833-.815H1.665C.745 17.1 0 17.83 0 18.73v.816c0 .447.376.816.833.816H4.25c.41 0 .746-.33.746-.73v-1.718zM36.84 29.038l5.477-.472.159-.02c.152-.026.29-.072.422-.137l.003-.002.002-.001.009-.004.007-.002.006-.004c.555-.282.925-.859.912-1.508l-.02-1.003c0-.144-.04-.289-.106-.42l-.125-.255c-.159-.322.105-.689.462-.643l.905.111c.159.02.304.112.383.243.073.125.113.269.113.413v9.034c0 .27-.027.538-.08.8-.442 2.092-1.823 4.57-5.866 4.832h-3.086c-.277 0-.542-.105-.746-.282-.106-.098-.185-.223-.238-.354l-1.275-3.324c-.073-.183-.179-.347-.318-.478-.297-.282-.7-.44-1.123-.44H13.822c-.443 0-.86.177-1.163.479-.12.118-.212.262-.278.42l-1.513 3.376c-.046.098-.106.19-.178.269-.205.21-.496.334-.793.334H6.792c-3.951-.367-5.24-2.924-5.63-5.002-.046-.236-.065-.479-.065-.721v-8.95c0-.13.033-.255.092-.367.08-.163.245-.268.423-.295l1.083-.13c.271-.034.476.248.35.491l-.224.446c-.06.124-.092.255-.1.393l-.019 1.023c-.013.655.357 1.232.912 1.508.003.003.008.005.013.006.005.002.01.004.013.007.132.066.271.111.423.138l.053.008c.035.005.07.011.106.011l5.477.472.383-.006c1.288 0 2.484-.603 3.25-1.6.007-.006.014-.013.02-.026.218-.262.476-.367.655-.407.066-.013.138-.02.204-.02.192.007.384.014.582.014h16.96c.191 0 .376-.007.555-.013.086 0 .171.006.257.026.172.046.41.157.615.4.033.04.06.065.092.092.767.957 1.936 1.534 3.198 1.534l.37.006zM42.382 17.1c-.456 0-.832.368-.832.815v1.691c0 .421.349.756.772.756h3.39c.457 0 .833-.368.833-.815v-.816c0-.901-.745-1.631-1.665-1.631h-2.498zM4.265 25.964c0-.202.174-.363.374-.343l6.565.652c.495.047.67.672.281.975-.274.208-.549.396-.743.524-.154.101-.341.155-.528.141l-2.978-.188-1.767-.114c-.676-.04-1.204-.605-1.204-1.284v-.363zm37.641-.343c.201-.02.375.141.375.343v.362c0 .68-.529 1.244-1.204 1.285l-1.767.114-2.978.188c-.187.014-.375-.04-.529-.14-.194-.129-.468-.317-.742-.525-.389-.303-.215-.928.28-.975l6.565-.652zm-20.585-.304H14.82c-.517 0-1.034-.027-1.543-.087l-8.964-.74c-.281-.027-.476-.301-.395-.575L4.4 22.26c.073-.267.322-.447.597-.447H41.87c.274 0 .516.18.596.447l.396 1.368c.12.42-.174.841-.61.881l-8.662.728c-.516.053-1.033.08-1.55.08H21.322zM5.179 31.888v2.13c0 .968.79 1.752 1.766 1.752h2.49v2.296h-2.49c-2.254 0-4.081-1.812-4.081-4.048v-2.13h2.315zm36.188 0h2.315v2.13c0 2.236-1.827 4.048-4.082 4.048h-2.49V35.77h2.49c.976 0 1.767-.784 1.767-1.752v-2.13z" clip-rule="evenodd"/>
</svg>
