<svg xmlns="http://www.w3.org/2000/svg" width="88" height="80" viewBox="0 0 88 80">
    <g fill="none" fill-rule="evenodd">
        <g fill="#fff">
            <g>
                <path d="M87.774 35.913v.792c-.392 23.957-19.923 43.173-43.883 43.175C19.931 79.882.396 60.67 0 36.713v-.792 1.125h20.337c0 13.014 10.55 23.564 23.564 23.564s23.564-10.55 23.564-23.564H87.79v-1.133h-.016z" transform="translate(-676 -176) translate(676 176)"/>
                <path d="M43.893 13.152c6.249 0 12.242 2.481 16.66 6.9 4.42 4.419 6.902 10.412 6.9 16.66v.326H20.325v-.325c0-6.25 2.483-12.243 6.902-16.661 4.42-4.419 10.413-6.9 16.662-6.9h.004zM74.543 0c2.04 0 3.878 1.229 4.658 3.113.78 1.885.348 4.053-1.095 5.495-1.443 1.441-3.612 1.872-5.496 1.09-1.883-.781-3.11-2.62-3.109-4.66C69.503 2.255 71.76 0 74.543 0z" transform="translate(-676 -176) translate(676 176)"/>
            </g>
        </g>
    </g>
</svg>
