<svg xmlns="http://www.w3.org/2000/svg" width="155" height="48" fill="none" viewBox="0 0 155 48">
    <path fill="#19191C" d="M77.238 33.355c-1.946 0-3.733-.451-5.361-1.355-1.629-.904-2.92-2.151-3.873-3.742-.953-1.611-1.43-3.428-1.43-5.451 0-2.004.477-3.802 1.43-5.393.953-1.61 2.244-2.868 3.873-3.771 1.628-.904 3.415-1.356 5.361-1.356 1.966 0 3.754.452 5.362 1.356 1.628.903 2.91 2.16 3.843 3.771.953 1.591 1.43 3.389 1.43 5.392 0 2.024-.477 3.84-1.43 5.452-.934 1.59-2.215 2.838-3.843 3.742-1.628.904-3.416 1.355-5.362 1.355zm0-3.683c1.251 0 2.353-.275 3.307-.825.953-.57 1.698-1.375 2.234-2.416s.804-2.25.804-3.625-.268-2.573-.804-3.594c-.536-1.041-1.281-1.837-2.234-2.387-.954-.55-2.056-.825-3.307-.825-1.25 0-2.363.275-3.336.825-.953.55-1.698 1.346-2.234 2.387-.536 1.021-.804 2.22-.804 3.595s.268 2.583.804 3.624 1.28 1.846 2.234 2.416c.973.55 2.085.825 3.336.825zM94.55 19.182c.535-.746 1.27-1.365 2.204-1.856.953-.51 2.035-.766 3.246-.766 1.41 0 2.681.344 3.813 1.031 1.152.688 2.055 1.67 2.711 2.947.675 1.257 1.013 2.72 1.013 4.39 0 1.67-.338 3.153-1.013 4.45-.656 1.276-1.559 2.268-2.711 2.975-1.132.708-2.403 1.061-3.813 1.061-1.211 0-2.283-.245-3.217-.736-.913-.491-1.658-1.11-2.234-1.857v10.107h-4.17V16.825h4.17v2.357zm8.727 5.746c0-.982-.209-1.827-.626-2.534-.397-.727-.933-1.277-1.608-1.65-.655-.373-1.37-.56-2.145-.56-.754 0-1.47.197-2.144.59-.656.373-1.192.923-1.609 1.65-.397.726-.596 1.58-.596 2.563 0 .982.199 1.837.596 2.564.417.726.953 1.286 1.609 1.68.675.372 1.39.559 2.144.559.775 0 1.49-.197 2.145-.59.675-.392 1.211-.952 1.608-1.679.417-.727.626-1.591.626-2.593zM114.826 20.213v7.897c0 .55.13.953.388 1.209.278.235.734.353 1.37.353h1.936v3.477h-2.621c-3.515 0-5.273-1.69-5.273-5.068v-7.867h-1.965v-3.389h1.965v-4.037h4.2v4.037h3.694v3.389h-3.694zM123.039 14.88c-.735 0-1.351-.226-1.847-.678-.477-.47-.715-1.05-.715-1.738s.238-1.257.715-1.709c.496-.471 1.112-.707 1.847-.707.734 0 1.34.236 1.817.707.496.452.744 1.021.744 1.709 0 .688-.248 1.267-.744 1.739-.477.451-1.083.677-1.817.677zm2.055 1.945v16.324h-4.17V16.825h4.17zM136.184 20.213h-2.889V33.15h-4.23V20.213h-1.876v-3.388h1.876V16c0-2.004.576-3.477 1.728-4.42 1.152-.943 2.889-1.385 5.213-1.326v3.477c-1.013-.02-1.718.147-2.115.501-.397.354-.596.992-.596 1.915v.678h2.889v3.389zM145.619 33.414c-1.589 0-3.019-.343-4.29-1.031-1.27-.707-2.273-1.7-3.008-2.976-.715-1.277-1.072-2.75-1.072-4.42s.367-3.143 1.102-4.42c.754-1.277 1.777-2.259 3.068-2.946 1.291-.708 2.73-1.061 4.319-1.061s3.028.353 4.319 1.06c1.291.688 2.304 1.67 3.038 2.947.755 1.277 1.132 2.75 1.132 4.42s-.387 3.143-1.161 4.42c-.755 1.277-1.788 2.269-3.098 2.976-1.291.688-2.741 1.031-4.349 1.031zm0-3.595c.754 0 1.459-.176 2.115-.53.675-.373 1.211-.923 1.608-1.65.397-.727.596-1.61.596-2.652 0-1.552-.417-2.74-1.251-3.565-.814-.845-1.817-1.267-3.009-1.267-1.191 0-2.194.422-3.008 1.267-.794.825-1.192 2.013-1.192 3.565s.388 2.75 1.162 3.595c.794.825 1.787 1.237 2.979 1.237z"/>
    <path fill="#19191C" fill-rule="evenodd" d="M6.23 4.858c0-1.161.952-2.103 2.126-2.103h2.996V0H8.356c-2.712 0-4.91 2.175-4.91 4.858v2.556H6.23V4.858zM44.649 0v2.755h2.996c1.174 0 2.126.942 2.126 2.103v2.556h2.785V4.858c0-2.683-2.199-4.858-4.91-4.858h-2.997zm4.054 22.242l-1.91-4.722c-.065-.152-.194-.415-.194-.415-1.177-2.848-3.974-4.706-7.085-4.706H16.49c-3.111 0-5.909 1.858-7.085 4.706 0 0-.13.263-.194.415l-1.91 4.722c-.428 1.052.354 2.193 1.499 2.193h38.394c1.145 0 1.926-1.14 1.507-2.193zM6.01 21.498c0-.536-.452-.978-1.001-.978H2.003C.897 20.52 0 21.396 0 22.477v.98c0 .536.452.978 1.002.978h4.112c.493 0 .896-.395.896-.876v-2.06zm38.313 13.348l6.59-.566.19-.024c.183-.032.35-.087.51-.165l.002-.002.004-.003.01-.003.011-.005c.002 0 .003-.002.004-.003.668-.338 1.113-1.03 1.097-1.81l-.024-1.203c0-.173-.047-.346-.127-.504l-.151-.306c-.19-.386.127-.827.556-.771l1.09.133c.19.024.365.134.46.291.088.15.136.323.136.496v10.841c0 .323-.032.645-.096.96-.532 2.51-2.194 5.483-7.059 5.798h-3.712c-.334 0-.651-.126-.898-.338-.127-.118-.222-.268-.286-.425l-1.534-3.989c-.088-.22-.215-.417-.382-.574-.357-.338-.842-.527-1.351-.527H16.629c-.533 0-1.033.212-1.399.574-.143.142-.254.315-.334.504l-1.82 4.051c-.056.118-.127.228-.215.323-.246.252-.596.401-.954.401H8.171c-4.753-.44-6.303-3.509-6.772-6.003-.056-.283-.08-.574-.08-.865V30.393c0-.157.04-.307.112-.44.095-.197.294-.323.508-.354l1.304-.158c.326-.04.572.3.421.59l-.27.535c-.072.15-.111.307-.12.472l-.023 1.228c-.016.786.43 1.479 1.097 1.809.004.004.01.006.016.008s.012.004.016.008c.159.078.326.133.508.165.022.002.043.006.064.01.042.007.085.014.127.014l6.59.566.46-.008c1.551 0 2.99-.724 3.912-1.92.008-.007.016-.015.024-.031.262-.315.572-.44.787-.488.08-.016.166-.023.246-.023.231.008.461.015.7.015h20.404c.231 0 .454-.008.668-.015.104 0 .207.008.31.031.207.055.493.189.74.48.04.047.07.079.11.11.923 1.149 2.33 1.841 3.848 1.841l.445.008zm6.668-14.326c-.55 0-1.002.442-1.002.978v2.03c0 .504.42.907.93.907h4.08c.548 0 1-.442 1-.979v-.979c0-1.081-.896-1.957-2.003-1.957h-3.005zM5.131 31.157c0-.242.21-.436.45-.412l7.899.783c.596.056.805.806.338 1.17-.33.25-.66.475-.894.629-.185.12-.41.185-.636.169l-3.582-.226-2.126-.137c-.813-.048-1.45-.726-1.45-1.54v-.436zm45.288-.412c.241-.024.45.17.45.412v.435c0 .815-.636 1.493-1.449 1.541l-2.125.137-3.583.226c-.226.016-.45-.048-.636-.17-.234-.153-.564-.379-.894-.629-.467-.363-.257-1.113.338-1.17l7.898-.782zm-24.768-.364H17.83c-.622 0-1.243-.032-1.857-.105L5.19 29.387c-.34-.032-.574-.36-.477-.689l.581-1.986c.09-.32.388-.537.719-.537h44.362c.33 0 .621.216.718.537l.477 1.642c.145.505-.21 1.01-.735 1.057l-10.42.873c-.622.065-1.244.097-1.865.097H25.65zm-19.42 7.885v2.556c0 1.161.951 2.102 2.125 2.102h2.996v2.756H8.356c-2.712 0-4.91-2.175-4.91-4.858v-2.556H6.23zm43.539 0h2.785v2.556c0 2.683-2.199 4.858-4.91 4.858h-2.997v-2.755h2.996c1.174 0 2.126-.942 2.126-2.103v-2.556z" clip-rule="evenodd"/>
</svg>
