<svg xmlns="http://www.w3.org/2000/svg" width="826" height="805" viewBox="0 0 826 805">
    <g fill="none" fill-rule="evenodd">
        <g fill="#8A939B" fill-rule="nonzero">
            <g>
                <g>
                    <path d="M421.333 487.387v3.604c-1.783 108.992-90.642 196.417-199.649 196.426-109.007.01-197.88-87.398-199.684-196.39v-3.604 5.118h92.523c0 59.208 47.998 107.207 107.207 107.207 59.209 0 107.207-47.999 107.207-107.207h92.468v-5.154h-.072z" opacity=".101" transform="translate(-599 -180) translate(640) translate(-41 180) rotate(18 221.703 587.402)"/>
                    <path d="M709.694 676.838c28.43-.005 55.696 11.287 75.8 31.39 20.102 20.102 31.394 47.37 31.389 75.799v1.478H602.468v-1.478c0-28.431 11.296-55.698 31.402-75.8 20.106-20.103 47.374-31.394 75.806-31.39h.018z" opacity=".18" transform="translate(-599 -180) translate(640) translate(-41 180) rotate(-11 709.676 731.171)"/>
                    <path d="M772.135 0c9.279 0 17.644 5.59 21.193 14.164 3.549 8.573 1.583 18.44-4.98 24.998-6.564 6.559-16.433 8.517-25.003 4.96-8.57-3.555-14.154-11.924-14.147-21.203C749.208 10.259 759.474 0 772.135 0z" opacity=".237" transform="translate(-599 -180) translate(640) translate(-41 180)"/>
                </g>
            </g>
        </g>
    </g>
</svg>
