<svg width="9" height="9" viewBox="0 0 9 9" fill="none" xmlns="http://www.w3.org/2000/svg">
<g opacity="0.3">
<path d="M6.5 7.5C6.5 8.05228 6.94772 8.5 7.5 8.5C8.05228 8.5 8.5 8.05228 8.5 7.5C8.5 6.94772 8.05228 6.5 7.5 6.5C6.94772 6.5 6.5 6.94772 6.5 7.5Z" stroke="white" stroke-linecap="round" stroke-linejoin="round"/>
<path d="M0.5 7.5C0.5 8.05228 0.947715 8.5 1.5 8.5C2.05228 8.5 2.5 8.05228 2.5 7.5C2.5 6.94772 2.05228 6.5 1.5 6.5C0.947715 6.5 0.5 6.94772 0.5 7.5Z" stroke="white" stroke-linecap="round" stroke-linejoin="round"/>
<path d="M6.5 1.5C6.5 2.05228 6.94772 2.5 7.5 2.5C8.05228 2.5 8.5 2.05228 8.5 1.5C8.5 0.947715 8.05228 0.5 7.5 0.5C6.94772 0.5 6.5 0.947715 6.5 1.5Z" stroke="white" stroke-linecap="round" stroke-linejoin="round"/>
<path d="M0.5 1.5C0.5 2.05228 0.947715 2.5 1.5 2.5C2.05228 2.5 2.5 2.05228 2.5 1.5C2.5 0.947715 2.05228 0.5 1.5 0.5C0.947715 0.5 0.5 0.947715 0.5 1.5Z" stroke="white" stroke-linecap="round" stroke-linejoin="round"/>
</g>
</svg>
