<svg width="17" height="4" viewBox="0 0 17 4" fill="none" xmlns="http://www.w3.org/2000/svg">
<path d="M0.0942659 1.183C-0.217804 2.09658 0.269817 3.09016 1.1834 3.40223C2.09698 3.7143 3.09056 3.22668 3.40263 2.3131C3.7147 1.39952 3.22708 0.405935 2.3135 0.0938651C1.39992 -0.218204 0.406335 0.269415 0.0942659 1.183Z" fill="#EA645F"/>
<path d="M6.84758 1.26494C6.53551 2.17852 7.02313 3.17211 7.93671 3.48418C8.85029 3.79625 9.84388 3.30863 10.1559 2.39505C10.468 1.48147 9.9804 0.48788 9.06682 0.175811C8.15324 -0.136259 7.15965 0.351362 6.84758 1.26494Z" fill="#EA645F"/>
<path d="M13.6009 1.34689C13.2888 2.26047 13.7764 3.25405 14.69 3.56612C15.6036 3.87819 16.5972 3.39057 16.9093 2.47699C17.2213 1.56341 16.7337 0.569825 15.8201 0.257756C14.9066 -0.054313 13.913 0.433308 13.6009 1.34689Z" fill="#EA645F"/>
</svg>
