<svg width="24" height="24" viewBox="0 0 24 24" fill="none" xmlns="http://www.w3.org/2000/svg">
<path d="M12 0C9.62663 0 7.30655 0.703788 5.33316 2.02236C3.35977 3.34094 1.8217 5.21508 0.913451 7.4078C0.00519946 9.60051 -0.232441 12.0133 0.230582 14.3411C0.693604 16.6689 1.83649 18.807 3.51472 20.4853C5.19295 22.1635 7.33115 23.3064 9.65892 23.7694C11.9867 24.2324 14.3995 23.9948 16.5922 23.0865C18.7849 22.1783 20.6591 20.6402 21.9776 18.6668C23.2962 16.6935 24 14.3734 24 12C24 8.8174 22.7357 5.76515 20.4853 3.51472C18.2348 1.26428 15.1826 0 12 0ZM19.8729 16.3269L18.8309 17.3437L19.0973 18.7164C19.1297 18.9036 19.1089 19.0961 19.0374 19.2722C18.9659 19.4482 18.8466 19.6007 18.6929 19.7124C18.5392 19.8241 18.3573 19.8906 18.1679 19.9042C17.9784 19.9179 17.7888 19.8782 17.6207 19.7897L16.3306 19.1112L15.1066 19.7897C14.9384 19.8783 14.7488 19.918 14.5593 19.9043C14.3697 19.8906 14.1878 19.8241 14.0342 19.7122C13.8805 19.6003 13.7613 19.4477 13.69 19.2715C13.6188 19.0953 13.5983 18.9026 13.631 18.7154L13.8764 17.28L12.8536 16.3265C12.7175 16.194 12.6212 16.0259 12.5756 15.8414C12.53 15.6569 12.537 15.4633 12.5957 15.2826C12.6545 15.1019 12.7627 14.9412 12.908 14.8187C13.0534 14.6963 13.2301 14.617 13.4182 14.5898L14.8596 14.3805L15.4509 13.1133C15.5437 12.9534 15.6769 12.8206 15.8371 12.7283C15.9973 12.6361 16.179 12.5875 16.3639 12.5875C16.5488 12.5875 16.7304 12.6361 16.8906 12.7283C17.0509 12.8206 17.184 12.9534 17.2768 13.1133L17.9213 14.4205L19.3106 14.5904C19.4986 14.6177 19.6752 14.6971 19.8204 14.8196C19.9656 14.9421 20.0736 15.1029 20.1322 15.2836C20.1907 15.4643 20.1975 15.6579 20.1517 15.8423C20.1059 16.0266 20.0092 16.1945 19.8729 16.3269ZM20.1818 12C20.1818 12.1447 20.1244 12.2834 20.0221 12.3857C19.9198 12.488 19.781 12.5455 19.6364 12.5455C19.4917 12.5455 19.353 12.488 19.2507 12.3857C19.1484 12.2834 19.0909 12.1447 19.0909 12V10.3636H4.90909V15.2727C4.90959 15.7066 5.08215 16.1225 5.38892 16.4293C5.69569 16.736 6.11162 16.9086 6.54546 16.9091H12C12.1447 16.9091 12.2834 16.9666 12.3857 17.0688C12.488 17.1711 12.5455 17.3099 12.5455 17.4545C12.5455 17.5992 12.488 17.7379 12.3857 17.8402C12.2834 17.9425 12.1447 18 12 18H6.54546C5.82237 17.9992 5.12911 17.7117 4.61781 17.2004C4.10651 16.6891 3.81894 15.9958 3.81819 15.2727V8.72727C3.81894 8.00418 4.10651 7.31093 4.61781 6.79963C5.12911 6.28833 5.82237 6.00075 6.54546 6H17.4545C18.1776 6.00075 18.8709 6.28833 19.3822 6.79963C19.8935 7.31093 20.1811 8.00418 20.1818 8.72727V12Z" fill="#FFE9A9"/>
<path d="M17.0491 15.2047L16.4797 14L15.9515 15.2021C15.882 15.348 15.7795 15.4741 15.6529 15.5696C15.5263 15.6652 15.3794 15.7273 15.2247 15.7506L14 15.9365L14.887 16.8383C14.9989 16.9521 15.0825 17.0925 15.1307 17.2476C15.1788 17.4026 15.19 17.5675 15.1632 17.728L14.9545 19L16.0512 18.3992C16.1894 18.3235 16.3431 18.284 16.4992 18.2839C16.6553 18.2838 16.8091 18.3232 16.9473 18.3986L18.045 19L17.8353 17.7269C17.8091 17.5663 17.8208 17.4014 17.8694 17.2465C17.9179 17.0916 18.0019 16.9513 18.114 16.8377L19 15.9365L17.7743 15.7506C17.6201 15.7274 17.4736 15.6656 17.3473 15.5705C17.2211 15.4754 17.1187 15.3499 17.0491 15.2047Z" fill="#FFD901"/>
</svg>
