<svg width="14" height="13" viewBox="0 0 14 13" fill="none" xmlns="http://www.w3.org/2000/svg">
<path d="M0.5 1.83333C0.5 1.47971 0.631503 1.14057 0.865581 0.890524C1.09966 0.640476 1.41714 0.5 1.74817 0.5H5.49269V12.5H1.74817C1.41714 12.5 1.09966 12.3595 0.865581 12.1095C0.631503 11.8594 0.5 11.5203 0.5 11.1667V1.83333Z" stroke="white" stroke-linecap="round" stroke-linejoin="round"/>
<path d="M8.48828 0.5H12.2328C12.5638 0.5 12.8813 0.640476 13.1154 0.890524C13.3495 1.14057 13.481 1.47971 13.481 1.83333V5.16667H8.48828V0.5ZM8.48828 7.83333H13.481V11.1667C13.481 11.5203 13.3495 11.8594 13.1154 12.1095C12.8813 12.3595 12.5638 12.5 12.2328 12.5H8.48828V7.83333Z" stroke="white" stroke-linecap="round" stroke-linejoin="round"/>
</svg>
