<svg width="11" height="12" viewBox="0 0 11 12" fill="none" xmlns="http://www.w3.org/2000/svg">
<path d="M6.75 4.77778V9.05556M4.25 4.77778V9.05556M1.75 2.33333V9.54444C1.75 10.229 1.75 10.571 1.88624 10.8324C2.00608 11.0624 2.19717 11.2497 2.43237 11.3669C2.6995 11.5 3.04937 11.5 3.74807 11.5H7.25193C7.95063 11.5 8.29999 11.5 8.56712 11.3669C8.80232 11.2497 8.99405 11.0624 9.11389 10.8324C9.25 10.5712 9.25 10.2295 9.25 9.54633V2.33333M1.75 2.33333H3M1.75 2.33333H0.5M3 2.33333H8M3 2.33333C3 1.76385 3 1.47925 3.09515 1.25464C3.22202 0.95516 3.4652 0.717084 3.77148 0.593036C4.0012 0.5 4.29257 0.5 4.875 0.5H6.125C6.70743 0.5 6.99864 0.5 7.22835 0.593036C7.53464 0.717084 7.77792 0.95516 7.90479 1.25464C7.99994 1.47925 8 1.76385 8 2.33333M8 2.33333H9.25M9.25 2.33333H10.5" stroke="#EA645F" stroke-linecap="round" stroke-linejoin="round"/>
</svg>
