<svg width="13" height="10" viewBox="0 0 13 10" fill="none" xmlns="http://www.w3.org/2000/svg">
<path d="M7.02 10H1.98C1.45487 10 0.95125 9.78538 0.579928 9.40337C0.208606 9.02135 0 8.50322 0 7.96296V2.03704C0 1.49678 0.208606 0.978653 0.579928 0.596634C0.95125 0.214616 1.45487 0 1.98 0H7.02C7.54513 0 8.04875 0.214616 8.42007 0.596634C8.79139 0.978653 9 1.49678 9 2.03704V7.96296C9 8.50322 8.79139 9.02135 8.42007 9.40337C8.04875 9.78538 7.54513 10 7.02 10ZM1.98 1.11111C1.74131 1.11111 1.51239 1.20866 1.3436 1.38231C1.17482 1.55595 1.08 1.79147 1.08 2.03704V7.96296C1.08 8.20853 1.17482 8.44405 1.3436 8.61769C1.51239 8.79134 1.74131 8.88889 1.98 8.88889H7.02C7.2587 8.88889 7.48761 8.79134 7.6564 8.61769C7.82518 8.44405 7.92 8.20853 7.92 7.96296V2.03704C7.92 1.79147 7.82518 1.55595 7.6564 1.38231C7.48761 1.20866 7.2587 1.11111 7.02 1.11111H1.98Z" fill="#EA645F"/>
<path d="M12.4231 7.99976C12.3174 7.99841 12.214 7.97445 12.1231 7.93025L8.27692 6.0346C8.19243 5.99234 8.12259 5.93296 8.07409 5.86214C8.0256 5.79132 8.00008 5.71144 8 5.63019V4.36642C8.00008 4.28517 8.0256 4.20529 8.07409 4.13447C8.12259 4.06365 8.19243 4.00427 8.27692 3.96201L12.1231 2.06636C12.2114 2.02293 12.3124 2 12.4154 2C12.5183 2 12.6194 2.02293 12.7077 2.06636C12.7962 2.10758 12.8698 2.16728 12.9211 2.23941C12.9725 2.31154 12.9997 2.39353 13 2.47709V7.53216C12.9997 7.61571 12.9725 7.69771 12.9211 7.76984C12.8698 7.84197 12.7962 7.90167 12.7077 7.94289C12.6209 7.98278 12.5225 8.00244 12.4231 7.99976ZM9.15385 5.3648L11.8462 6.69176V3.30485L9.15385 4.63181V5.3648Z" fill="#EA645F"/>
</svg>
